<?xml version="1.0" standalone="no"?>
<!DOCTYPE svg PUBLIC "-//W3C//DTD SVG 20010904//EN"
 "http://www.w3.org/TR/2001/REC-SVG-20010904/DTD/svg10.dtd">
<svg version="1.0" xmlns="http://www.w3.org/2000/svg"
 width="1920.000000pt" height="1080.000000pt" viewBox="0 0 1920.000000 1080.000000"
 preserveAspectRatio="xMidYMid meet">

<g transform="translate(0.000000,1080.000000) scale(0.100000,-0.100000)"
fill="#000000" stroke="none">
<path d="M10570 10378 c-25 -5 -515 -127 -1090 -270 -901 -223 -1056 -264
-1128 -299 -174 -84 -283 -242 -349 -505 -16 -65 -17 -310 -20 -3814 -3 -2560
0 -3776 7 -3844 21 -196 87 -375 183 -497 52 -64 155 -136 242 -169 50 -18
1420 -375 2020 -526 272 -69 332 -69 535 -1 41 14 113 37 160 52 107 33 173
82 233 172 48 73 79 148 104 252 14 59 17 504 25 4301 7 2975 7 4287 -1 4410
-14 241 -54 394 -124 476 -22 26 -43 35 -142 60 -111 27 -121 32 -179 83 -33
29 -95 69 -136 89 -71 34 -81 37 -185 39 -60 1 -130 -3 -155 -9z m203 -224
c93 -32 163 -126 204 -274 17 -62 18 -266 18 -4470 0 -3326 -3 -4418 -12
-4460 -52 -245 -185 -353 -396 -320 -40 6 -547 128 -1127 271 -779 191 -1071
267 -1117 289 -72 36 -149 115 -187 193 -14 28 -36 90 -48 137 l-23 85 0 3815
0 3815 23 78 c29 103 60 162 117 225 60 67 138 104 299 144 125 31 128 32 142
13 8 -10 14 -36 14 -56 0 -69 21 -139 52 -175 26 -29 36 -34 74 -34 55 0 1224
255 1279 279 77 34 145 147 145 244 1 55 15 116 32 133 8 8 79 30 158 48 166
40 277 46 353 20z m384 -711 c-3 -10 -5 -2 -5 17 0 19 2 27 5 18 2 -10 2 -26
0 -35z"/>
</g>
</svg>
